HIERARCHY
ROOT Hips
{
	OFFSET 55.310501 45.591206 43.872097
	CHANNELS 6 Xposition Yposition Zposition Zrotation Xrotation Yrotation
	JOINT Chest
	{
		OFFSET -0.153500 1.163101 7.852402
		CHANNELS 6 Xposition Yposition Zposition Zrotation Xrotation Yrotation
		JOINT Chest2
		{
			OFFSET 0.000000 0.000000 3.343300
			CHANNELS 6 Xposition Yposition Zposition Zrotation Xrotation Yrotation
			JOINT Neck
			{
				OFFSET 0.000000 0.000000 7.785500
				CHANNELS 6 Xposition Yposition Zposition Zrotation Xrotation Yrotation
				JOINT Head
				{
					OFFSET 0.000000 0.000000 2.173901
					CHANNELS 6 Xposition Yposition Zposition Zrotation Xrotation Yrotation
					End Site
					{
						OFFSET 0.000000 0.000000 10.528198
					}
				}
			}
			JOINT LeftCollar
			{
				OFFSET 2.676300 -1.652401 4.938301
				CHANNELS 6 Xposition Yposition Zposition Zrotation Xrotation Yrotation
				JOINT LeftShoulder
				{
					OFFSET 4.299000 0.000000 0.000000
					CHANNELS 6 Xposition Yposition Zposition Zrotation Xrotation Yrotation
					JOINT LeftElbow
					{
						OFFSET 0.000000 0.000000 -10.245102
						CHANNELS 6 Xposition Yposition Zposition Zrotation Xrotation Yrotation
						JOINT LeftWrist
						{
							OFFSET 0.000000 0.000000 -12.703300
							CHANNELS 6 Xposition Yposition Zposition Zrotation Xrotation Yrotation
							End Site
							{
								OFFSET 0.000000 0.000000 -2.173901
							}
						}
					}
				}
			}
			JOINT RightCollar
			{
				OFFSET -2.534599 -1.686401 5.195000
				CHANNELS 6 Xposition Yposition Zposition Zrotation Xrotation Yrotation
				JOINT RightShoulder
				{
					OFFSET -4.144100 0.000000 0.000000
					CHANNELS 6 Xposition Yposition Zposition Zrotation Xrotation Yrotation
					JOINT RightElbow
					{
						OFFSET 0.000000 0.000000 -10.116501
						CHANNELS 6 Xposition Yposition Zposition Zrotation Xrotation Yrotation
						JOINT RightWrist
						{
							OFFSET 0.000000 0.000000 -12.937801
							CHANNELS 6 Xposition Yposition Zposition Zrotation Xrotation Yrotation
							End Site
							{
								OFFSET 0.000000 0.000000 -2.173901
							}
						}
					}
				}
			}
		}
	}
	JOINT LeftHip
	{
		OFFSET 2.175598 0.064499 -2.662899
		CHANNELS 6 Xposition Yposition Zposition Zrotation Xrotation Yrotation
		JOINT LeftKnee
		{
			OFFSET 0.000000 -0.000004 -18.585800
			CHANNELS 6 Xposition Yposition Zposition Zrotation Xrotation Yrotation
			JOINT LeftAnkle
			{
				OFFSET 0.000000 0.000000 -18.979500
				CHANNELS 6 Xposition Yposition Zposition Zrotation Xrotation Yrotation
				End Site
				{
					OFFSET 0.000000 -9.264000 0.000000
				}
			}
		}
	}
	JOINT RightHip
	{
		OFFSET -2.092400 -0.058102 -2.581200
		CHANNELS 6 Xposition Yposition Zposition Zrotation Xrotation Yrotation
		JOINT RightKnee
		{
			OFFSET 0.000000 -0.000004 -18.665001
			CHANNELS 6 Xposition Yposition Zposition Zrotation Xrotation Yrotation
			JOINT RightAnkle
			{
				OFFSET 0.000000 0.000000 -18.566601
				CHANNELS 6 Xposition Yposition Zposition Zrotation Xrotation Yrotation
				End Site
				{
					OFFSET 0.000000 -8.497601 0.000000
				}
			}
		}
	}
}
MOTION
Frames: 7
Frame Time: 0.041667
67.366302 36.482494 42.007599 1775.010546 9.274965 -5.068359 -0.153496 1.163108 7.852400 -2.912697 8.557409 2.685979 -0.000001 -0.000006 3.343306 -2.047037 -6.219244 -0.012361 0.000010 -0.000003 7.785501 44.524637 -6.788738 -1.157096 0.000001 0.000008 2.173902 6.842011 -0.918531 8.253478 2.676305 -1.652400 4.938301 -2.040333 2.611280 11.316315 4.298999 0.000002 -0.000005 -3.033441 3.432599 -58.632208 0.000002 0.000007 -10.245098 66.961897 709.745502 2.263968 0.000002 -0.000000 -12.703294 1322.562751 -176.918715 546.850189 -2.534594 -1.686398 5.195000 2.210347 3.041155 4.642911 -4.144108 -0.000010 -0.000000 35.553740 -40.316947 91.831880 -0.000006 0.000010 -10.116498 -116.330443 3.142374 -39.286797 -0.000000 0.000004 -12.937802 -237.755497 -26.023721 -16.531139 2.175602 0.064497 -2.662894 -696.988020 -27.224193 11.440607 0.000003 -0.000006 -18.585800 151.296914 -226.807879 -144.188449 -0.000008 0.000005 -18.979513 754.564602 -7.286952 -119.170231 -2.092400 -0.058095 -2.581197 931.678675 -19.082633 -109.230544 0.000005 -0.000006 -18.665005 -1282.604396 75.753068 -472.332716 0.000008 0.000002 -18.566597 724.240693 -0.685323 -12.485523
67.423401 36.528702 42.044891 1775.152942 9.384313 -5.000147 -0.153503 1.163109 7.852404 -3.497598 8.540072 2.912819 0.000008 0.000006 3.343297 -2.085931 -6.215546 -0.013355 0.000001 0.000002 7.785501 45.040723 -7.026968 -1.431741 0.000009 0.000006 2.173901 6.919589 -1.021492 8.370757 2.676294 -1.652396 4.938301 -1.815801 2.436428 11.305971 4.298997 0.000000 -0.000002 -3.606024 3.599966 -58.809773 -0.000006 -0.000006 -10.245096 67.608621 709.684139 2.302992 -0.000000 0.000007 -12.703301 1322.153486 -176.674031 546.101000 -2.534596 -1.686392 5.195000 2.114710 2.839929 4.513924 -4.144110 0.000004 -0.000004 37.131528 -40.085953 92.270084 -0.000002 -0.000002 -10.116495 -115.939879 3.384451 -38.698937 -0.000005 0.000006 -12.937796 -238.309180 -26.132365 -16.679559 2.175591 0.064497 -2.662898 -693.814769 -27.089225 12.698816 -0.000010 -0.000006 -18.585796 148.495293 -227.125879 -143.839413 -0.000007 0.000001 -18.979509 754.232382 -7.258770 -119.235664 -2.092407 -0.058087 -2.581203 931.267989 -18.782897 -110.045522 0.000005 -0.000006 -18.665009 -1280.246615 75.567704 -475.136318 0.000004 -0.000006 -18.566603 724.461445 -0.704463 -12.154058
67.486305 36.566795 42.080193 1775.288890 9.422945 -4.962987 -0.153488 1.163105 7.852406 -4.082980 8.609980 3.073734 0.000003 0.000006 3.343310 -2.021811 -6.236266 -0.012220 0.000000 -0.000006 7.785502 45.394913 -7.166208 -1.422885 -0.000004 0.000002 2.173900 7.041419 -1.122539 8.427133 2.676290 -1.652411 4.938306 -1.882462 2.417044 11.478106 4.298992 -0.000001 -0.000002 -3.786157 3.430395 -59.023490 -0.000005 -0.000004 -10.245108 68.117429 709.626001 2.311637 -0.000006 -0.000002 -12.703295 1322.417186 -176.606248 545.671790 -2.534598 -1.686414 5.195001 2.186096 2.968352 4.505829 -4.144102 0.000004 -0.000007 38.403101 -40.206086 93.215095 0.000003 -0.000008 -10.116497 -115.345598 3.707954 -38.340068 -0.000003 0.000000 -12.937799 -238.510424 -26.039145 -16.817490 2.175607 0.064493 -2.662900 -693.950881 -27.222506 12.680712 -0.000005 -0.000009 -18.585796 148.966412 -227.252866 -144.061804 -0.000004 -0.000002 -18.979513 754.105832 -7.210475 -119.348663 -2.092400 -0.058099 -2.581189 930.979263 -18.635034 -110.789650 0.000006 -0.000002 -18.665007 -1277.994291 75.250318 -477.648898 0.000004 -0.000000 -18.566597 724.575427 -0.798030 -11.990153
67.541306 36.603096 42.124992 1775.350089 9.628210 -4.665577 -0.153495 1.163100 7.852409 -4.647844 8.496504 2.913742 0.000003 -0.000009 3.343302 -1.907890 -6.215501 -0.010687 0.000005 -0.000023 7.785498 46.046089 -7.351775 -1.406501 0.000003 0.000007 2.173904 7.167650 -1.227687 8.531629 2.676302 -1.652412 4.938297 -1.839813 2.337115 11.518453 4.298995 0.000001 -0.000005 -3.788820 3.257286 -58.974258 0.000002 -0.000004 -10.245108 68.494059 709.509724 2.370184 -0.000003 -0.000008 -12.703293 1322.751264 -176.591017 545.690259 -2.534593 -1.686414 5.194995 2.338776 3.191369 4.594203 -4.144094 -0.000004 -0.000014 39.337723 -40.843158 93.821644 0.000006 -0.000006 -10.116500 -114.257576 3.730753 -38.669929 0.000002 0.000006 -12.937801 -238.308852 -25.688032 -16.960914 2.175603 0.064495 -2.662890 -694.094096 -27.513593 12.660750 -0.000002 -0.000005 -18.585800 149.442285 -227.232156 -144.495616 0.000001 -0.000002 -18.979517 754.355107 -6.988582 -119.497001 -2.092390 -0.058094 -2.581190 931.021665 -18.329400 -111.332493 0.000000 -0.000001 -18.665007 -1275.347566 75.463024 -480.477744 0.000005 -0.000005 -18.566601 724.788584 -0.793557 -11.668072
67.602409 36.639801 42.165493 1775.287579 9.734129 -4.410425 -0.153501 1.163099 7.852400 -5.039612 8.578085 2.841776 0.000003 -0.000000 3.343301 -1.788875 -6.275105 0.121555 -0.000003 -0.000014 7.785503 46.603900 -7.750581 -1.434465 0.000007 -0.000000 2.173902 7.187073 -1.251371 8.742687 2.676295 -1.652405 4.938305 -1.805791 2.278791 11.370412 4.298996 0.000007 -0.000004 -3.976862 3.320734 -58.978683 -0.000000 -0.000015 -10.245099 69.092213 709.570103 2.368573 0.000003 -0.000011 -12.703293 1322.758258 -176.577056 545.827847 -2.534599 -1.686407 5.195001 2.440058 3.312490 4.329249 -4.144110 0.000000 -0.000004 40.067222 -40.661803 94.387006 -0.000005 -0.000006 -10.116495 -113.753133 3.516380 -39.275377 0.000001 0.000002 -12.937799 -237.840246 -25.329707 -17.002231 2.175592 0.064495 -2.662906 -694.114641 -27.716735 12.738203 -0.000005 -0.000001 -18.585798 149.891083 -227.329241 -145.010749 -0.000002 -0.000008 -18.979509 754.483787 -6.897303 -119.509336 -2.092405 -0.058101 -2.581201 931.132369 -18.234016 -111.793258 0.000005 -0.000005 -18.665010 -1273.213705 75.399667 -482.776840 0.000000 -0.000006 -18.566605 725.032722 -0.751302 -11.237986
67.652397 36.677605 42.210598 1775.027813 9.825371 -4.100818 -0.153505 1.163100 7.852406 -4.962535 8.625457 2.640752 0.000004 0.000005 3.343296 -1.821185 -6.236957 -0.000196 -0.000009 0.000005 7.785498 47.197283 -7.802642 -1.303231 0.000007 -0.000000 2.173905 7.172487 -1.369597 8.737309 2.676300 -1.652383 4.938296 -2.071045 2.376299 11.560374 4.299006 0.000005 -0.000005 -4.084528 3.336400 -59.009173 -0.000005 0.000007 -10.245095 69.748656 709.636055 2.365902 -0.000005 -0.000006 -12.703298 1322.612038 -176.505694 545.885876 -2.534596 -1.686387 5.194995 2.555731 3.428274 4.644003 -4.144108 -0.000011 -0.000018 40.225549 -40.706128 94.526157 0.000006 -0.000004 -10.116497 -113.215146 3.249460 -40.079813 0.000006 0.000008 -12.937802 -237.295798 -24.918706 -17.049923 2.175591 0.064501 -2.662892 -693.951099 -27.964939 12.715305 0.000001 -0.000007 -18.585800 150.705774 -227.631504 -145.705038 -0.000008 -0.000002 -18.979517 754.133207 -6.830545 -119.481264 -2.092394 -0.058094 -2.581191 931.447869 -18.230584 -112.104728 0.000007 -0.000004 -18.665012 -1272.234420 75.067133 -483.874370 0.000002 0.000003 -18.566603 725.185008 -0.719467 -10.963144
67.689499 36.707504 42.245892 1774.698762 9.901766 -3.733890 -0.153496 1.163101 7.852403 -4.892705 8.577595 2.493563 0.000007 -0.000002 3.343297 -1.878569 -6.208921 -0.233087 -0.000004 -0.000006 7.785496 47.717928 -7.818243 -1.227246 -0.000000 0.000005 2.173910 7.184038 -1.522154 8.693825 2.676293 -1.652395 4.938302 -2.315960 2.511496 11.768022 4.298995 -0.000004 -0.000007 -3.872826 3.060124 -59.045100 -0.000007 -0.000009 -10.245097 70.160475 709.801291 2.337919 0.000009 -0.000010 -12.703305 1322.342983 -176.418582 545.869811 -2.534595 -1.686402 5.194991 2.629056 3.500150 4.954674 -4.144102 -0.000002 -0.000003 40.697621 -41.069214 94.597765 0.000001 0.000000 -10.116497 -112.334598 2.879682 -40.572970 0.000001 0.000002 -12.937805 -236.723647 -24.576228 -17.025315 2.175606 0.064493 -2.662898 -693.761056 -28.130295 12.493938 -0.000007 -0.000007 -18.585800 151.145557 -227.659043 -146.060194 -0.000012 -0.000003 -18.979513 753.921198 -6.745555 -119.505115 -2.092390 -0.058096 -2.581202 931.880411 -18.292141 -112.291431 0.000009 -0.000002 -18.665009 -1271.387477 74.791767 -484.800707 0.000005 -0.000003 -18.566603 725.328988 -0.724845 -10.695308
